<svg xmlns="http://www.w3.org/2000/svg" xmlns:xlink="http://www.w3.org/1999/xlink" width="40" zoomAndPan="magnify" viewBox="0 0 30 37.5" height="50" preserveAspectRatio="xMidYMid meet" version="1.0"><defs><clipPath id="46f7a102d7"><path d="M 7 8.96875 L 22.449219 8.96875 L 22.449219 23 L 7 23 Z M 7 8.96875 " clip-rule="nonzero"/></clipPath><clipPath id="0541c67055"><path d="M 7 22 L 22.449219 22 L 22.449219 27.46875 L 7 27.46875 Z M 7 22 " clip-rule="nonzero"/></clipPath><clipPath id="862e9f3c1f"><path d="M 12.433594 8.96875 L 17 8.96875 L 17 13.320312 L 12.433594 13.320312 Z M 12.433594 8.96875 " clip-rule="nonzero"/></clipPath><clipPath id="043226f0f8"><path d="M 14.714844 8.96875 L 15.253906 10.628906 L 17 10.628906 L 15.585938 11.65625 L 16.125 13.320312 L 14.714844 12.292969 L 13.304688 13.320312 L 13.84375 11.65625 L 12.433594 10.628906 L 14.175781 10.628906 Z M 14.714844 8.96875 " clip-rule="nonzero"/></clipPath></defs><path fill="#ffffff" d="M 11.261719 14.113281 C 9.785156 13.335938 8.824219 12.894531 8.824219 15.648438 C 8.824219 17.035156 9.035156 18.011719 9.378906 18.691406 C 9.382812 18.695312 9.386719 18.699219 9.394531 18.703125 C 9.027344 16.472656 9.96875 15.023438 11.261719 14.113281 " fill-opacity="1" fill-rule="nonzero"/><path fill="#0f33ff" d="M 10 14.367188 C 10.285156 14.292969 10.574219 14.46875 10.644531 14.753906 C 10.71875 15.039062 10.542969 15.328125 10.257812 15.398438 C 9.972656 15.472656 9.683594 15.296875 9.613281 15.011719 C 9.539062 14.726562 9.714844 14.4375 10 14.367188 " fill-opacity="1" fill-rule="nonzero"/><path fill="#0f33ff" d="M 10.332031 16.148438 C 10.472656 16.113281 10.617188 16.199219 10.652344 16.34375 C 10.691406 16.484375 10.601562 16.628906 10.460938 16.667969 C 10.316406 16.703125 10.171875 16.617188 10.136719 16.472656 C 10.101562 16.332031 10.1875 16.183594 10.332031 16.148438 " fill-opacity="1" fill-rule="nonzero"/><g clip-path="url(#46f7a102d7)"><path fill="#0f33ff" d="M 14.710938 19.773438 C 13.183594 19.773438 8.824219 21.953125 8.824219 15.648438 C 8.824219 11.089844 11.460938 15.285156 14.710938 15.285156 C 17.960938 15.285156 20.597656 11.089844 20.597656 15.648438 C 20.597656 21.761719 16.824219 19.773438 14.710938 19.773438 Z M 14.304688 11.070312 L 14.710938 10.25 L 15.117188 11.070312 L 16.019531 11.199219 L 15.367188 11.839844 L 15.519531 12.742188 L 14.710938 12.316406 L 13.902344 12.742188 L 14.054688 11.839844 L 13.402344 11.199219 Z M 21.855469 13.496094 C 21.6875 13.332031 21.335938 13.261719 20.929688 13.253906 C 19.972656 10.746094 17.550781 8.96875 14.710938 8.96875 C 11.871094 8.96875 9.449219 10.746094 8.492188 13.253906 C 8.085938 13.261719 7.734375 13.332031 7.566406 13.496094 C 6.90625 14.160156 6.90625 16.578125 7.566406 17.238281 C 7.710938 17.382812 7.988281 17.453125 8.320312 17.476562 C 9.125 20.246094 11.679688 22.269531 14.710938 22.269531 C 17.738281 22.269531 20.296875 20.246094 21.101562 17.476562 C 21.433594 17.453125 21.710938 17.382812 21.855469 17.238281 C 22.515625 16.578125 22.515625 14.160156 21.855469 13.496094 " fill-opacity="1" fill-rule="nonzero"/></g><g clip-path="url(#0541c67055)"><path fill="#0f33ff" d="M 14.710938 25.675781 C 11.050781 25.675781 8.007812 24.261719 7.34375 22.390625 C 7.257812 22.636719 7.210938 22.894531 7.210938 23.152344 C 7.210938 25.390625 10.570312 27.203125 14.710938 27.203125 C 18.851562 27.203125 22.210938 25.390625 22.210938 23.152344 C 22.210938 22.894531 22.164062 22.636719 22.078125 22.390625 C 21.414062 24.261719 18.367188 25.675781 14.710938 25.675781 " fill-opacity="1" fill-rule="nonzero"/></g><path fill="#0f33ff" d="M 14.710938 23.355469 C 11.707031 23.355469 9.207031 22.195312 8.664062 20.65625 C 8.59375 20.859375 8.554688 21.070312 8.554688 21.285156 C 8.554688 23.121094 11.3125 24.609375 14.710938 24.609375 C 18.109375 24.609375 20.867188 23.121094 20.867188 21.285156 C 20.867188 21.070312 20.828125 20.859375 20.757812 20.65625 C 20.214844 22.195312 17.714844 23.355469 14.710938 23.355469 " fill-opacity="1" fill-rule="nonzero"/><path fill="#ffffff" d="M 19.882812 15.542969 C 19.882812 15.542969 20.46875 18.546875 18.34375 19.5 C 18.34375 19.5 19.824219 17.925781 19.882812 15.542969 " fill-opacity="1" fill-rule="nonzero"/><g clip-path="url(#862e9f3c1f)"><g clip-path="url(#043226f0f8)"><path fill="#0f33ff" d="M 12.433594 8.96875 L 17.003906 8.96875 L 17.003906 13.320312 L 12.433594 13.320312 Z M 12.433594 8.96875 " fill-opacity="1" fill-rule="nonzero"/></g></g></svg>